<?xml version="1.0" encoding="UTF-8"?>
<svg version="1.1" xmlns="http://www.w3.org/2000/svg" width="225" height="225">
<path d="M0 0 C74.25 0 148.5 0 225 0 C225 74.25 225 148.5 225 225 C150.75 225 76.5 225 0 225 C0 150.75 0 76.5 0 0 Z " fill="#57B8DE" transform="translate(0,0)"/>
<path d="M0 0 C6.40981675 5.04602595 11.99326459 11.22494089 13.9375 19.3125 C14.99436975 29.84851078 14.65633094 39.45229118 7.7734375 48 C6.23419303 49.72475602 4.66454454 51.42311492 3.05859375 53.0859375 C-0.23354398 56.54177269 -1.88686031 58.60994126 -3.0625 63.3125 C-7.3525 63.3125 -11.6425 63.3125 -16.0625 63.3125 C-16.17736109 59.09326945 -16.27684446 54.87946134 -16.3371582 50.65991211 C-16.36229524 49.22515486 -16.39641108 47.79052559 -16.43969727 46.35620117 C-16.50039665 44.2931363 -16.52871353 42.23176385 -16.55078125 40.16796875 C-16.57696533 38.92684326 -16.60314941 37.68571777 -16.63012695 36.40698242 C-16.0625 33.3125 -16.0625 33.3125 -13.61791992 31.5246582 C-12.77463135 31.124646 -11.93134277 30.72463379 -11.0625 30.3125 C-9.18205366 27.23540598 -9.06135798 25.37759524 -9.125 21.75 C-9.81407452 18.24015661 -9.81407452 18.24015661 -12.1875 15.875 C-15.83925146 13.89035247 -17.95772467 13.72610352 -22.0625 14.3125 C-25.0526643 15.72128096 -25.0526643 15.72128096 -27.0625 18.3125 C-28.04951011 21.93153706 -28.26851533 24.40603255 -27.4375 28.0625 C-26.21376618 30.52637784 -26.21376618 30.52637784 -23.50708008 31.5246582 C-21.0625 33.3125 -21.0625 33.3125 -20.49487305 36.40698242 C-20.52105713 37.64810791 -20.54724121 38.8892334 -20.57421875 40.16796875 C-20.58129349 40.82960526 -20.58836823 41.49124176 -20.59565735 42.17292786 C-20.62361493 44.28310985 -20.68634153 46.3906226 -20.75 48.5 C-20.77508176 49.93160225 -20.79789517 51.36324617 -20.81835938 52.79492188 C-20.86919576 56.30263262 -20.96700324 59.80458583 -21.0625 63.3125 C-25.3525 63.3125 -29.6425 63.3125 -34.0625 63.3125 C-34.3925 62.3225 -34.7225 61.3325 -35.0625 60.3125 C-36.473618 56.95941485 -38.27888251 54.96298337 -40.9375 52.5 C-46.65972123 47.10446175 -50.75684178 39.77210356 -51.30078125 31.8359375 C-51.61040892 20.35055577 -50.04325932 12.76023272 -41.98828125 4.1015625 C-30.10062095 -6.94214626 -13.8796977 -7.64799669 0 0 Z " fill="#56B8DE" transform="translate(131.0625,73.6875)"/>
<path d="M0 0 C9.48711443 4.94442446 16.05508561 12.25989327 19.5 22.4375 C22.64636282 34.35172722 21.2445714 44.5270902 15.25 55.25 C12.78382592 59.1810444 10.10524563 62.04369869 6.41796875 64.84375 C4.84754622 65.96277158 4.84754622 65.96277158 4 68 C3.76109847 71.5702507 3.61706436 75.13944106 3.4765625 78.71484375 C3 82 3 82 1.5859375 83.94140625 C0 85 0 85 -2 85 C-2.20625 85.7425 -2.4125 86.485 -2.625 87.25 C-4.41684166 90.83368332 -6.56111318 92.03492182 -10 94 C-15.17695764 95.72565255 -20.12288018 95.6858707 -25.25 93.8125 C-28.2714955 91.82105979 -30.62291303 89.72665858 -33 87 C-33 86.34 -33 85.68 -33 85 C-33.9590625 84.5359375 -33.9590625 84.5359375 -34.9375 84.0625 C-37 83 -37 83 -38 82 C-38.10597605 79.75095275 -38.18463006 77.50059353 -38.25 75.25 C-38.50340729 69.79634749 -38.50340729 69.79634749 -41.125 65.1875 C-42.07375 64.465625 -43.0225 63.74375 -44 63 C-52.05207079 54.10129089 -56.43407623 44.16855966 -56.2734375 32.13671875 C-55.32364925 21.24129065 -51.13126222 12.5806999 -43.0859375 5.2578125 C-30.40716234 -4.89531024 -14.74201637 -7.30254681 0 0 Z M-43 13 C-50.44981023 21.71987966 -50.83281373 30.98955348 -50 42 C-48.50097848 49.50516813 -44.35015464 54.35919907 -39.12109375 59.7734375 C-35.82895602 63.22927269 -34.17563969 65.29744126 -33 70 C-28.71 70 -24.42 70 -20 70 C-19.88513891 65.78076945 -19.78565554 61.56696134 -19.7253418 57.34741211 C-19.70020476 55.91265486 -19.66608892 54.47802559 -19.62280273 53.04370117 C-19.56210335 50.9806363 -19.53378647 48.91926385 -19.51171875 46.85546875 C-19.48553467 45.61434326 -19.45935059 44.37321777 -19.43237305 43.09448242 C-19.66783033 39.81305512 -19.66783033 39.81305512 -22.44458008 38.2121582 C-23.28786865 37.812146 -24.13115723 37.41213379 -25 37 C-26.88044634 33.92290598 -27.00114202 32.06509524 -26.9375 28.4375 C-26 25 -26 25 -23.875 22.5625 C-20.22324854 20.57785247 -18.10477533 20.41360352 -14 21 C-11.125 22.5625 -11.125 22.5625 -9 25 C-8.01298989 28.61903706 -7.79398467 31.09353255 -8.625 34.75 C-10 37 -10 37 -12.55541992 38.2121582 C-15.33216967 39.81305512 -15.33216967 39.81305512 -15.56762695 43.09448242 C-15.54144287 44.33560791 -15.51525879 45.5767334 -15.48828125 46.85546875 C-15.47766914 47.84792351 -15.47766914 47.84792351 -15.46684265 48.86042786 C-15.43888507 50.97060985 -15.37615847 53.0781226 -15.3125 55.1875 C-15.28741824 56.61910225 -15.26460483 58.05074617 -15.24414062 59.48242188 C-15.19330424 62.99013262 -15.09549676 66.49208583 -15 70 C-10.71 70 -6.42 70 -2 70 C-1.505 68.515 -1.505 68.515 -1 67 C0.41371745 63.64747004 2.23256917 61.60788784 4.875 59.125 C11.61354505 52.74634041 14.99079362 45.81167984 15.39428711 36.56811523 C15.6158262 25.96552962 12.95795263 17.9735324 5.625 10 C-2.29568299 2.7993791 -10.7587018 1.51428229 -21.16796875 1.7265625 C-30.31209754 2.37904875 -36.7947663 6.42162307 -43 13 Z " fill="#F7FBFD" transform="translate(130,67)"/>
<path d="M0 0 C13.2 0 26.4 0 40 0 C40.12375 3.5475 40.2475 7.095 40.375 10.75 C40.45693604 12.41820801 40.45693604 12.41820801 40.54052734 14.12011719 C40.5869019 16.85372254 40.54857818 19.31781804 40 22 C37.09765625 24.5625 37.09765625 24.5625 34 26 C31.22810842 29.21897087 31 30.6935573 31 35 C31.71286744 39.24516568 33.69122272 41.25613591 37 44 C37.66 44.66 38.32 45.32 39 46 C16.56 46 -5.88 46 -29 46 C-25 43 -25 43 -23 43 C-21.20940684 39.53072576 -21.05179193 37.40638653 -21.55859375 33.65234375 C-21.58544922 31.23608398 -21.58544922 31.23608398 -21 29 C-17.31025686 25.85366599 -12.64708261 24.15241165 -8.19726562 22.3203125 C-4.95902247 20.86231396 -4.95902247 20.86231396 -1 17 C-0.67 11.39 -0.34 5.78 0 0 Z " fill="#FDFEFE" transform="translate(70,179)"/>
<path d="M0 0 C1.32 1.65 2.64 3.3 4 5 C7.05740175 7.08022772 8.82627984 7.05049934 12.40625 6.50390625 C14.796875 6.44970703 14.796875 6.44970703 17 7 C20.14595725 10.69007548 21.8476315 15.3530222 23.6796875 19.80273438 C25.13768604 23.04097753 25.13768604 23.04097753 29 27 C34.61 27.33 40.22 27.66 46 28 C46 41.2 46 54.4 46 68 C40.67875 68.185625 40.67875 68.185625 35.25 68.375 C33.58179199 68.45693604 33.58179199 68.45693604 31.87988281 68.54052734 C29.14639141 68.58689996 26.68198972 68.54904495 24 68 C21.47265625 65.09765625 21.47265625 65.09765625 20 62 C16.5559438 59.62742795 14.62895426 59 10.4375 59 C6.35665107 60.18715605 4.72959028 61.80247995 2 65 C1.01 65.99 1.01 65.99 0 67 C0 44.89 0 22.78 0 0 Z " fill="#FDFEFE" transform="translate(0,42)"/>
<path d="M0 0 C22.44 0 44.88 0 68 0 C67.01 0.99 66.02 1.98 65 3 C64.34 3 63.68 3 63 3 C61.39797472 6.31085225 60.97408929 8.82735653 60.9375 12.4375 C60.6556493 15.37263491 60.40033041 16.60149758 58.2890625 18.703125 C55.04249668 20.86750221 51.84823441 22.66451318 48.21484375 24.1015625 C44.99766841 25.39346839 44.99766841 25.39346839 41 29 C40.67 34.61 40.34 40.22 40 46 C26.8 46 13.6 46 0 46 C-0.12375 42.4525 -0.2475 38.905 -0.375 35.25 C-0.42962402 34.13786133 -0.48424805 33.02572266 -0.54052734 31.87988281 C-0.5869019 29.14627746 -0.54857818 26.68218196 0 24 C2.90234375 21.4375 2.90234375 21.4375 6 20 C8.77189158 16.78102913 9 15.3064427 9 11 C8.27822207 6.74952996 6.35411133 4.71523298 3 2 C2.01 1.34 1.02 0.68 0 0 Z " fill="#FDFEFE" transform="translate(115,0)"/>
<path d="M0 0 C22.44 0 44.88 0 68 0 C66.35 1.32 64.7 2.64 63 4 C60.68650256 7.47024616 59.98899579 9.37275996 60.0625 13.5625 C61.09398537 17.34461301 62.242195 19.242195 65 22 C66.32 22.66 67.64 23.32 69 24 C69 31.26 69 38.52 69 46 C55.8 46 42.6 46 29 46 C28.67 40.39 28.34 34.78 28 29 C24.77730627 25.7501678 23.56497067 24.72802728 19.625 23.125 C18.07421552 22.38031636 16.5246845 21.63301546 14.9765625 20.8828125 C14.28643066 20.58777832 13.59629883 20.29274414 12.88525391 19.98876953 C10.7728507 18.88086575 9.45783078 17.8923929 8 16 C8 13.99984699 8.00440303 11.99893417 8.07421875 10 C7.96112802 6.95250245 6.95455574 5.29154811 5 3 C2.42900598 1.65310085 2.42900598 1.65310085 0 1 C0 0.67 0 0.34 0 0 Z " fill="#FDFEFE" transform="translate(41,0)"/>
<path d="M0 0 C7.26 0 14.52 0 22 0 C22 13.2 22 26.4 22 40 C13.585 40.495 13.585 40.495 5 41 C1.7501678 44.22269373 0.72802728 45.43502933 -0.875 49.375 C-1.61968364 50.92578448 -2.36698454 52.4753155 -3.1171875 54.0234375 C-3.41222168 54.71356934 -3.70725586 55.40370117 -4.01123047 56.11474609 C-5.09615761 58.18334051 -6.20753713 59.50840243 -8 61 C-10.0859375 61.1171875 -10.0859375 61.1171875 -12.375 60.875 C-16.24453619 60.72399371 -16.73188363 60.78322506 -19.9375 63.375 C-20.618125 64.24125 -21.29875 65.1075 -22 66 C-22.99 66.99 -22.99 66.99 -24 68 C-24 45.89 -24 23.78 -24 1 C-22.68 2.65 -21.36 4.3 -20 6 C-16.9553356 8.53722033 -14.87371914 9.2360385 -11 8.9375 C-7.10688565 8.26171411 -4.78649416 6.86844987 -2 4 C-1.34 2.68 -0.68 1.36 0 0 Z " fill="#FDFEFE" transform="translate(24,115)"/>
<path d="M0 0 C13.2 0 26.4 0 40 0 C40.495 8.415 40.495 8.415 41 17 C44.39563071 20.42215907 45.87927803 21.65949461 50 23.5 C50.845625 23.93957031 51.69125 24.37914062 52.5625 24.83203125 C54.11004833 25.63308591 55.6716368 26.40799673 57.25 27.14648438 C59 28 59 28 60 29 C60.15769349 30.41340094 60.27634556 31.83125522 60.375 33.25 C60.78334239 37.20778006 61.47191707 39.81648816 64 43 C65.32 43.99 66.64 44.98 68 46 C45.56 46 23.12 46 0 46 C0.99 45.34 1.98 44.68 3 44 C6.31032033 41.32021687 8.28552983 39.25173091 9.0625 35.0625 C9.27886707 31.78608439 8.90581962 30.80801692 7.375 27.6875 C5.25167162 24.85678492 5.25167162 24.85678492 2.37109375 24.03125 C0 22 0 22 -0.40332031 19.70043945 C-0.49357804 16.71960018 -0.4335055 13.79309031 -0.3125 10.8125 C-0.209375 7.244375 -0.10625 3.67625 0 0 Z " fill="#FEFEFE" transform="translate(115,179)"/>
<path d="M0 0 C5.32125 -0.185625 5.32125 -0.185625 10.75 -0.375 C12.41820801 -0.45693604 12.41820801 -0.45693604 14.12011719 -0.54052734 C16.85379208 -0.58690308 19.31781103 -0.54896676 22 0 C24.5546875 2.90625 24.5546875 2.90625 26 6 C28.74018076 8.1633006 30.48652151 8.92352448 33.9375 9.4375 C37.89346816 8.87236169 39.95372709 7.56163859 43 5 C44.41190564 2.39562767 44.41190564 2.39562767 45 0 C45.33 0 45.66 0 46 0 C46 22.44 46 44.88 46 68 C44.68 66.35 43.36 64.7 42 63 C39.09195562 61.0747137 37.05630665 60.88332147 33.625 60.9375 C30.67118448 60.65710507 29.41041373 60.41135289 27.29296875 58.2890625 C25.13325652 55.04094648 23.3350567 51.8471469 21.8984375 48.21484375 C20.60653161 44.99766841 20.60653161 44.99766841 17 41 C11.39 40.67 5.78 40.34 0 40 C0 26.8 0 13.6 0 0 Z " fill="#FEFEFE" transform="translate(179,115)"/>
<path d="M0 0 C0.33 0 0.66 0 1 0 C1 22.44 1 44.88 1 68 C-0.32 66.35 -1.64 64.7 -3 63 C-5.74244023 60.90708509 -7.52091349 60.07135331 -10.9375 59.5625 C-14.89044945 60.12720706 -16.92822911 61.47432171 -20 64 C-20.32226562 64.86625 -20.64453125 65.7325 -20.9765625 66.625 C-23 69 -23 69 -25.29907227 69.40356445 C-28.2800403 69.49355105 -31.20679102 69.43351032 -34.1875 69.3125 C-37.755625 69.209375 -41.32375 69.10625 -45 69 C-45 55.8 -45 42.6 -45 29 C-36.585 28.505 -36.585 28.505 -28 28 C-24.87706045 25.12980389 -24.05813035 24.30074609 -22.625 20.6875 C-21.97216349 19.3368481 -21.31853908 17.9865767 -20.6640625 16.63671875 C-20.11492187 15.43660156 -19.56578125 14.23648438 -19 13 C-17.546875 10.5546875 -17.546875 10.5546875 -16 9 C-13.9140625 8.49609375 -13.9140625 8.49609375 -11.625 8.4375 C-7.66978589 8.14809409 -5.1171325 7.6448397 -2 5 C-0.65310085 2.42900598 -0.65310085 2.42900598 0 0 Z " fill="#FEFEFE" transform="translate(224,41)"/>
<path d="M0 0 C1.93166016 0.01740234 1.93166016 0.01740234 3.90234375 0.03515625 C5.19269531 0.04417969 6.48304687 0.05320313 7.8125 0.0625 C8.81152344 0.07410156 9.81054688 0.08570313 10.83984375 0.09765625 C10.865625 0.74992188 10.89140625 1.4021875 10.91796875 2.07421875 C11.28978545 7.80357612 11.9234542 11.62178248 15.83984375 16.09765625 C18.89816603 17.98681429 21.53096506 18.44169214 25.08984375 18.72265625 C25.981875 18.79742187 26.87390625 18.8721875 27.79296875 18.94921875 C28.80617188 19.02269531 28.80617188 19.02269531 29.83984375 19.09765625 C31.20209295 31.37471695 31.20209295 31.37471695 28.1875 35.1875 C25.81023849 36.76259242 23.44329068 37.93588244 20.83984375 39.09765625 C19.95425781 39.60167969 19.06867187 40.10570312 18.15625 40.625 C13.28254984 43.3551411 13.28254984 43.3551411 10.83984375 44.09765625 C8.7890625 43.25 8.7890625 43.25 6.83984375 42.09765625 C1.70779901 41.44313305 1.70779901 41.44313305 -2.9765625 43.1484375 C-5.14964971 44.92356175 -6.89701228 46.57136831 -8.16015625 49.09765625 C-8.68835997 54.8280102 -8.68835997 54.8280102 -6.41015625 59.91015625 C-3.98107349 62.36474516 -3.98107349 62.36474516 -0.16015625 65.09765625 C-11.71015625 65.09765625 -23.26015625 65.09765625 -35.16015625 65.09765625 C-35.16015625 53.21765625 -35.16015625 41.33765625 -35.16015625 29.09765625 C-34.50015625 30.41765625 -33.84015625 31.73765625 -33.16015625 33.09765625 C-29.8358992 36.49922161 -28.3923624 37.9216268 -23.66015625 38.59765625 C-19.87421047 38.05680685 -17.3916154 37.126712 -14.16015625 35.09765625 C-12.00850922 31.8701857 -11.88770546 30.89259986 -11.91015625 27.16015625 C-11.905 26.30550781 -11.89984375 25.45085937 -11.89453125 24.5703125 C-11.9864819 22.08608015 -11.9864819 22.08608015 -13.29907227 20.19775391 C-14.16015625 18.09765625 -14.16015625 18.09765625 -13.48510742 16.09887695 C-13.06205322 15.41398193 -12.63899902 14.72908691 -12.203125 14.0234375 C-11.75001953 13.27384766 -11.29691406 12.52425781 -10.83007812 11.75195312 C-10.34087891 10.97916016 -9.85167969 10.20636719 -9.34765625 9.41015625 C-8.87005859 8.62576172 -8.39246094 7.84136719 -7.90039062 7.03320312 C-3.65980678 0.11309662 -3.65980678 0.11309662 0 0 Z " fill="#FDFEFE" transform="translate(35.16015625,159.90234375)"/>
<path d="M0 0 C11.22 0 22.44 0 34 0 C33.01 0.99 32.02 1.98 31 3 C30.34 3 29.68 3 29 3 C26.9911417 7.14327024 26.59784066 10.41538356 27 15 C28.17828612 18.12245821 29.08636998 20.25556073 31.6875 22.375 C35.11333685 23.30090185 38.49656085 23.44363848 42 23 C42.72832031 22.56558594 43.45664062 22.13117187 44.20703125 21.68359375 C47.57389778 20.85953551 48.20917825 21.33957854 51.171875 22.95703125 C52.70929228 23.89036834 54.2351124 24.84302303 55.75 25.8125 C56.52988281 26.29009766 57.30976562 26.76769531 58.11328125 27.25976562 C63.71068948 30.71068948 63.71068948 30.71068948 65 32 C65.07271741 34.35313555 65.08370868 36.70833668 65.0625 39.0625 C65.05347656 40.35285156 65.04445313 41.64320312 65.03515625 42.97265625 C65.02355469 43.97167969 65.01195313 44.97070312 65 46 C64.34773438 46.02578125 63.69546875 46.0515625 63.0234375 46.078125 C57.29408013 46.4499417 53.47587377 47.08361045 49 51 C47.11084196 54.05832228 46.65596411 56.69112131 46.375 60.25 C46.30023438 61.14203125 46.22546875 62.0340625 46.1484375 62.953125 C46.09945312 63.62859375 46.05046875 64.3040625 46 65 C33.7229393 66.3622492 33.7229393 66.3622492 29.91015625 63.34765625 C28.33506383 60.97039474 27.16177381 58.60344693 26 56 C25.49597656 55.11441406 24.99195312 54.22882812 24.47265625 53.31640625 C21.74251515 48.44270609 21.74251515 48.44270609 21 46 C21.84765625 43.94921875 21.84765625 43.94921875 23 42 C23.6545232 36.86795526 23.6545232 36.86795526 21.94921875 32.18359375 C20.1740945 30.01050654 18.52628794 28.26314397 16 27 C10.29085808 26.45104405 7.43223114 27.37362907 3 31 C2.01 32.32 1.02 33.64 0 35 C0 23.45 0 11.9 0 0 Z " fill="#FDFEFE" transform="translate(0,0)"/>
<path d="M0 0 C11.88 0 23.76 0 36 0 C36 11.22 36 22.44 36 34 C35.01 33.01 34.02 32.02 33 31 C33 30.34 33 29.68 33 29 C28.49532997 27.24207999 24.83388602 26.56055582 20 27 C17.21098427 28.23956255 15.55649413 29.28450754 13.6875 31.6875 C12.67188834 35.10364832 12.55504158 38.48613715 13 42 C13.43441406 42.72832031 13.86882812 43.45664062 14.31640625 44.20703125 C15.14046449 47.57389778 14.66042146 48.20917825 13.04296875 51.171875 C12.10963166 52.70929228 11.15697697 54.2351124 10.1875 55.75 C9.70990234 56.52988281 9.23230469 57.30976562 8.74023438 58.11328125 C5.28931052 63.71068948 5.28931052 63.71068948 4 65 C1.64686445 65.07271741 -0.70833668 65.08370868 -3.0625 65.0625 C-4.99802734 65.04896484 -4.99802734 65.04896484 -6.97265625 65.03515625 C-7.97167969 65.02355469 -8.97070312 65.01195313 -10 65 C-10.08636719 64.19175781 -10.17273438 63.38351563 -10.26171875 62.55078125 C-10.93531436 55.57133318 -10.93531436 55.57133318 -14.5 49.8125 C-17.9124847 47.33844859 -19.96853798 46.81051582 -24.125 46.4375 C-25.03507813 46.35371094 -25.94515625 46.26992188 -26.8828125 46.18359375 C-27.58148438 46.12300781 -28.28015625 46.06242187 -29 46 C-29.80161834 41.1217756 -30.11842524 36.84304139 -29 32 C-25.12242514 28.23530941 -20.92978586 26.22907174 -16 24 C-13.99817934 23.00364963 -11.99756545 22.00485435 -10 21 C-9.01 21.66 -8.02 22.32 -7 23 C-2.30487273 23.59788137 2.97779075 23.68147283 7 21 C8.90614962 17.0061627 9.5484435 13.38754798 9 9 C7.12711824 5.39296847 5.9101088 3.4550544 2.25 1.625 C1.5075 1.41875 0.765 1.2125 0 1 C0 0.67 0 0.34 0 0 Z " fill="#FDFEFE" transform="translate(189,0)"/>
<path d="M0 0 C4.8782244 -0.80161834 9.15695861 -1.11842524 14 0 C17.76469059 3.87757486 19.77092826 8.07021414 22 13 C22.99635037 15.00182066 23.99514565 17.00243455 25 19 C24.34 19.99 23.68 20.98 23 22 C22.68399811 24.14790929 22.68399811 24.14790929 22.75 26.4375 C22.74484375 27.19933594 22.7396875 27.96117187 22.734375 28.74609375 C23.15683745 32.33081186 24.34192995 34.40362402 27 36.8125 C31.4553337 38.57606959 35.39317592 38.15365476 40 37 C43.32723853 34.58775207 44.11998294 32.76003413 46 29 C46 40.88 46 52.76 46 65 C34.45 65 22.9 65 11 65 C15 62 15 62 17 62 C18.75792001 57.49532997 19.43944418 53.83388602 19 49 C17.29798346 45.17046278 15.84310946 43.55521516 12 42 C9.77615205 41.68662792 9.77615205 41.68662792 7.5 41.75 C6.7471875 41.74484375 5.994375 41.7396875 5.21875 41.734375 C2.95440291 41.85094509 2.95440291 41.85094509 1.1159668 43.13891602 C-1 44 -1 44 -2.9987793 43.32495117 C-3.68367432 42.90189697 -4.36856934 42.47884277 -5.07421875 42.04296875 C-5.82380859 41.58986328 -6.57339844 41.13675781 -7.34570312 40.66992188 C-8.11849609 40.18072266 -8.89128906 39.69152344 -9.6875 39.1875 C-10.47189453 38.70990234 -11.25628906 38.23230469 -12.06445312 37.74023438 C-17.73404367 34.26595633 -17.73404367 34.26595633 -19 33 C-19.07271741 30.64686445 -19.08370868 28.29166332 -19.0625 25.9375 C-19.05347656 24.64714844 -19.04445312 23.35679687 -19.03515625 22.02734375 C-19.02355469 21.02832031 -19.01195312 20.02929688 -19 19 C-18.19175781 18.91363281 -17.38351563 18.82726562 -16.55078125 18.73828125 C-11.83916354 18.11878025 -7.98246167 17.589477 -3.875 15.125 C-1.03569934 10.39283223 -0.5799928 5.42769378 0 0 Z " fill="#FDFEFE" transform="translate(179,160)"/>
<path d="M0 0 C10.23 0 20.46 0 31 0 C31 1.65 31 3.3 31 5 C20.77 5 10.54 5 0 5 C0 3.35 0 1.7 0 0 Z " fill="#59B9DE" transform="translate(97,142)"/>
<path d="M0 0 C2.375 0.6875 2.375 0.6875 3.375 1.6875 C3.5625 4.625 3.5625 4.625 3.375 7.6875 C1.375 9.6875 1.375 9.6875 -1.125 9.9375 C-3.625 9.6875 -3.625 9.6875 -5.625 7.6875 C-5.9375 4.6875 -5.9375 4.6875 -5.625 1.6875 C-2.625 -0.3125 -2.625 -0.3125 0 0 Z " fill="#5AB9DE" transform="translate(113.625,92.3125)"/>
<path d="M0 0 C5.61 0 11.22 0 17 0 C14 3 14 3 11.40625 3.3984375 C10.4471875 3.39070312 9.488125 3.38296875 8.5 3.375 C7.5409375 3.38273438 6.581875 3.39046875 5.59375 3.3984375 C3 3 3 3 0 0 Z " fill="#54B8DE" transform="translate(104,153)"/>
</svg>
